<svg width="66" height="12" viewBox="0 0 66 12" fill="none" xmlns="http://www.w3.org/2000/svg">
<g clip-path="url(#clip0_2_129)">
<path d="M5.99531 0.894135C3.09727 0.892963 0.75 3.23906 0.75 6.13476C0.75 8.4246 2.21836 10.3711 4.26328 11.0859C4.53867 11.1551 4.49648 10.9594 4.49648 10.8258V9.91757C2.90625 10.1039 2.8418 9.05156 2.73516 8.87578C2.51953 8.50781 2.00977 8.41406 2.16211 8.23828C2.52422 8.05195 2.89336 8.28515 3.32109 8.91679C3.63047 9.375 4.23398 9.29765 4.53984 9.22148C4.60664 8.94609 4.74961 8.69999 4.94648 8.50898C3.29883 8.21367 2.61211 7.2082 2.61211 6.01289C2.61211 5.43281 2.80312 4.8996 3.17812 4.46953C2.93906 3.76054 3.20039 3.15351 3.23555 3.06328C3.91641 3.00234 4.62422 3.55078 4.6793 3.59414C5.06602 3.48984 5.50781 3.43476 6.00234 3.43476C6.49922 3.43476 6.94219 3.49218 7.33242 3.59765C7.46484 3.49687 8.12109 3.02578 8.75391 3.0832C8.78789 3.17343 9.04336 3.7664 8.81836 4.46601C9.19805 4.89726 9.39141 5.43515 9.39141 6.0164C9.39141 7.21406 8.7 8.2207 7.04766 8.51132C7.18918 8.65051 7.30156 8.81649 7.37822 8.99959C7.45488 9.18269 7.49429 9.37923 7.49414 9.57773V10.8961C7.50352 11.0016 7.49414 11.1059 7.66992 11.1059C9.74531 10.4062 11.2395 8.4457 11.2395 6.13593C11.2395 3.23906 8.89102 0.894135 5.99531 0.894135Z" fill="#AF48FF"/>
</g>
<path d="M19.5892 9.513C19.5892 9.993 19.4002 10.344 19.0222 10.566C18.6502 10.794 18.0892 10.908 17.3392 10.908C16.6132 10.908 16.0912 10.809 15.7732 10.611C15.4552 10.413 15.2962 10.131 15.2962 9.765C15.2962 9.513 15.3622 9.315 15.4942 9.171C15.6262 9.033 15.8062 8.931 16.0342 8.865V8.766C15.7582 8.634 15.6202 8.418 15.6202 8.118C15.6202 7.884 15.6952 7.707 15.8452 7.587C15.9952 7.461 16.1872 7.368 16.4212 7.308V7.272C16.1452 7.14 15.9292 6.951 15.7732 6.705C15.6232 6.459 15.5482 6.174 15.5482 5.85C15.5482 5.616 15.5902 5.4 15.6742 5.202C15.7582 5.004 15.8752 4.836 16.0252 4.698C16.1812 4.554 16.3642 4.443 16.5742 4.365C16.7902 4.287 17.0302 4.248 17.2942 4.248C17.6242 4.248 17.9182 4.308 18.1762 4.428V4.347C18.1762 4.167 18.2182 4.02 18.3022 3.906C18.3862 3.786 18.5242 3.726 18.7162 3.726H19.4092V4.356H18.5272V4.653C18.6952 4.797 18.8242 4.971 18.9142 5.175C19.0102 5.373 19.0582 5.598 19.0582 5.85C19.0582 6.084 19.0162 6.3 18.9322 6.498C18.8482 6.696 18.7282 6.867 18.5722 7.011C18.4222 7.149 18.2392 7.257 18.0232 7.335C17.8072 7.413 17.5672 7.452 17.3032 7.452C17.1532 7.452 17.0032 7.437 16.8532 7.407C16.6972 7.449 16.5562 7.512 16.4302 7.596C16.3042 7.674 16.2412 7.785 16.2412 7.929C16.2412 8.067 16.3072 8.16 16.4392 8.208C16.5712 8.256 16.7422 8.28 16.9522 8.28H17.9422C18.5182 8.28 18.9352 8.391 19.1932 8.613C19.4572 8.829 19.5892 9.129 19.5892 9.513ZM18.9142 9.567C18.9142 9.381 18.8422 9.231 18.6982 9.117C18.5602 9.009 18.3112 8.955 17.9512 8.955H16.4032C16.1152 9.087 15.9712 9.297 15.9712 9.585C15.9712 9.789 16.0462 9.963 16.1962 10.107C16.3522 10.251 16.6132 10.323 16.9792 10.323H17.6452C18.0472 10.323 18.3592 10.26 18.5812 10.134C18.8032 10.008 18.9142 9.819 18.9142 9.567ZM17.3032 6.876C17.6092 6.876 17.8522 6.804 18.0322 6.66C18.2122 6.51 18.3022 6.282 18.3022 5.976V5.724C18.3022 5.418 18.2122 5.193 18.0322 5.049C17.8522 4.899 17.6092 4.824 17.3032 4.824C16.9972 4.824 16.7542 4.899 16.5742 5.049C16.3942 5.193 16.3042 5.418 16.3042 5.724V5.976C16.3042 6.282 16.3942 6.51 16.5742 6.66C16.7542 6.804 16.9972 6.876 17.3032 6.876ZM22.1223 9.108C21.8043 9.108 21.5163 9.051 21.2583 8.937C21.0063 8.823 20.7873 8.661 20.6013 8.451C20.4213 8.235 20.2803 7.98 20.1783 7.686C20.0823 7.386 20.0343 7.05 20.0343 6.678C20.0343 6.312 20.0823 5.979 20.1783 5.679C20.2803 5.379 20.4213 5.124 20.6013 4.914C20.7873 4.698 21.0063 4.533 21.2583 4.419C21.5163 4.305 21.8043 4.248 22.1223 4.248C22.4343 4.248 22.7133 4.305 22.9593 4.419C23.2053 4.533 23.4153 4.692 23.5893 4.896C23.7633 5.094 23.8953 5.331 23.9853 5.607C24.0813 5.883 24.1293 6.186 24.1293 6.516V6.858H20.7903V7.074C20.7903 7.272 20.8203 7.458 20.8803 7.632C20.9463 7.8 21.0363 7.947 21.1503 8.073C21.2703 8.199 21.4143 8.298 21.5823 8.37C21.7563 8.442 21.9513 8.478 22.1673 8.478C22.4613 8.478 22.7163 8.409 22.9323 8.271C23.1543 8.133 23.3253 7.935 23.4453 7.677L23.9583 8.046C23.8083 8.364 23.5743 8.622 23.2563 8.82C22.9383 9.012 22.5603 9.108 22.1223 9.108ZM22.1223 4.851C21.9243 4.851 21.7443 4.887 21.5823 4.959C21.4203 5.025 21.2793 5.121 21.1593 5.247C21.0453 5.373 20.9553 5.523 20.8893 5.697C20.8233 5.865 20.7903 6.051 20.7903 6.255V6.318H23.3553V6.219C23.3553 5.805 23.2413 5.475 23.0133 5.229C22.7913 4.977 22.4943 4.851 22.1223 4.851ZM27.0708 9.108C26.7588 9.108 26.4738 9.051 26.2158 8.937C25.9578 8.823 25.7358 8.661 25.5498 8.451C25.3698 8.235 25.2288 7.98 25.1268 7.686C25.0248 7.386 24.9738 7.05 24.9738 6.678C24.9738 6.312 25.0248 5.979 25.1268 5.679C25.2288 5.379 25.3698 5.124 25.5498 4.914C25.7358 4.698 25.9578 4.533 26.2158 4.419C26.4738 4.305 26.7588 4.248 27.0708 4.248C27.3828 4.248 27.6648 4.305 27.9168 4.419C28.1748 4.533 28.3968 4.698 28.5828 4.914C28.7688 5.124 28.9128 5.379 29.0148 5.679C29.1168 5.979 29.1678 6.312 29.1678 6.678C29.1678 7.05 29.1168 7.386 29.0148 7.686C28.9128 7.98 28.7688 8.235 28.5828 8.451C28.3968 8.661 28.1748 8.823 27.9168 8.937C27.6648 9.051 27.3828 9.108 27.0708 9.108ZM27.0708 8.469C27.4608 8.469 27.7788 8.349 28.0248 8.109C28.2708 7.869 28.3938 7.503 28.3938 7.011V6.345C28.3938 5.853 28.2708 5.487 28.0248 5.247C27.7788 5.007 27.4608 4.887 27.0708 4.887C26.6808 4.887 26.3628 5.007 26.1168 5.247C25.8708 5.487 25.7478 5.853 25.7478 6.345V7.011C25.7478 7.503 25.8708 7.869 26.1168 8.109C26.3628 8.349 26.6808 8.469 27.0708 8.469ZM30.3519 9V4.356H31.0719V5.211H31.1169C31.2009 4.989 31.3509 4.791 31.5669 4.617C31.7829 4.443 32.0799 4.356 32.4579 4.356H32.7369V5.076H32.3139C31.9239 5.076 31.6179 5.151 31.3959 5.301C31.1799 5.445 31.0719 5.628 31.0719 5.85V9H30.3519ZM37.3607 9.513C37.3607 9.993 37.1717 10.344 36.7937 10.566C36.4217 10.794 35.8607 10.908 35.1107 10.908C34.3847 10.908 33.8627 10.809 33.5447 10.611C33.2267 10.413 33.0677 10.131 33.0677 9.765C33.0677 9.513 33.1337 9.315 33.2657 9.171C33.3977 9.033 33.5777 8.931 33.8057 8.865V8.766C33.5297 8.634 33.3917 8.418 33.3917 8.118C33.3917 7.884 33.4667 7.707 33.6167 7.587C33.7667 7.461 33.9587 7.368 34.1927 7.308V7.272C33.9167 7.14 33.7007 6.951 33.5447 6.705C33.3947 6.459 33.3197 6.174 33.3197 5.85C33.3197 5.616 33.3617 5.4 33.4457 5.202C33.5297 5.004 33.6467 4.836 33.7967 4.698C33.9527 4.554 34.1357 4.443 34.3457 4.365C34.5617 4.287 34.8017 4.248 35.0657 4.248C35.3957 4.248 35.6897 4.308 35.9477 4.428V4.347C35.9477 4.167 35.9897 4.02 36.0737 3.906C36.1577 3.786 36.2957 3.726 36.4877 3.726H37.1807V4.356H36.2987V4.653C36.4667 4.797 36.5957 4.971 36.6857 5.175C36.7817 5.373 36.8297 5.598 36.8297 5.85C36.8297 6.084 36.7877 6.3 36.7037 6.498C36.6197 6.696 36.4997 6.867 36.3437 7.011C36.1937 7.149 36.0107 7.257 35.7947 7.335C35.5787 7.413 35.3387 7.452 35.0747 7.452C34.9247 7.452 34.7747 7.437 34.6247 7.407C34.4687 7.449 34.3277 7.512 34.2017 7.596C34.0757 7.674 34.0127 7.785 34.0127 7.929C34.0127 8.067 34.0787 8.16 34.2107 8.208C34.3427 8.256 34.5137 8.28 34.7237 8.28H35.7137C36.2897 8.28 36.7067 8.391 36.9647 8.613C37.2287 8.829 37.3607 9.129 37.3607 9.513ZM36.6857 9.567C36.6857 9.381 36.6137 9.231 36.4697 9.117C36.3317 9.009 36.0827 8.955 35.7227 8.955H34.1747C33.8867 9.087 33.7427 9.297 33.7427 9.585C33.7427 9.789 33.8177 9.963 33.9677 10.107C34.1237 10.251 34.3847 10.323 34.7507 10.323H35.4167C35.8187 10.323 36.1307 10.26 36.3527 10.134C36.5747 10.008 36.6857 9.819 36.6857 9.567ZM35.0747 6.876C35.3807 6.876 35.6237 6.804 35.8037 6.66C35.9837 6.51 36.0737 6.282 36.0737 5.976V5.724C36.0737 5.418 35.9837 5.193 35.8037 5.049C35.6237 4.899 35.3807 4.824 35.0747 4.824C34.7687 4.824 34.5257 4.899 34.3457 5.049C34.1657 5.193 34.0757 5.418 34.0757 5.724V5.976C34.0757 6.282 34.1657 6.51 34.3457 6.66C34.5257 6.804 34.7687 6.876 35.0747 6.876ZM39.8938 9.108C39.5758 9.108 39.2878 9.051 39.0298 8.937C38.7778 8.823 38.5588 8.661 38.3728 8.451C38.1928 8.235 38.0518 7.98 37.9498 7.686C37.8538 7.386 37.8058 7.05 37.8058 6.678C37.8058 6.312 37.8538 5.979 37.9498 5.679C38.0518 5.379 38.1928 5.124 38.3728 4.914C38.5588 4.698 38.7778 4.533 39.0298 4.419C39.2878 4.305 39.5758 4.248 39.8938 4.248C40.2058 4.248 40.4848 4.305 40.7308 4.419C40.9768 4.533 41.1868 4.692 41.3608 4.896C41.5348 5.094 41.6668 5.331 41.7568 5.607C41.8528 5.883 41.9008 6.186 41.9008 6.516V6.858H38.5618V7.074C38.5618 7.272 38.5918 7.458 38.6518 7.632C38.7178 7.8 38.8078 7.947 38.9218 8.073C39.0418 8.199 39.1858 8.298 39.3538 8.37C39.5278 8.442 39.7228 8.478 39.9388 8.478C40.2328 8.478 40.4878 8.409 40.7038 8.271C40.9258 8.133 41.0968 7.935 41.2168 7.677L41.7298 8.046C41.5798 8.364 41.3458 8.622 41.0278 8.82C40.7098 9.012 40.3318 9.108 39.8938 9.108ZM39.8938 4.851C39.6958 4.851 39.5158 4.887 39.3538 4.959C39.1918 5.025 39.0508 5.121 38.9308 5.247C38.8168 5.373 38.7268 5.523 38.6608 5.697C38.5948 5.865 38.5618 6.051 38.5618 6.255V6.318H41.1268V6.219C41.1268 5.805 41.0128 5.475 40.7848 5.229C40.5628 4.977 40.2658 4.851 39.8938 4.851ZM43.0873 2.34H43.8073V5.112H43.8433C43.9573 4.848 44.1163 4.638 44.3203 4.482C44.5303 4.326 44.8093 4.248 45.1573 4.248C45.6373 4.248 46.0153 4.404 46.2913 4.716C46.5733 5.022 46.7143 5.457 46.7143 6.021V9H45.9943V6.147C45.9943 5.313 45.6433 4.896 44.9413 4.896C44.7973 4.896 44.6563 4.914 44.5183 4.95C44.3863 4.986 44.2663 5.04 44.1583 5.112C44.0503 5.184 43.9633 5.277 43.8973 5.391C43.8373 5.499 43.8073 5.628 43.8073 5.778V9H43.0873V2.34ZM49.9575 9.108C49.6455 9.108 49.3605 9.051 49.1025 8.937C48.8445 8.823 48.6225 8.661 48.4365 8.451C48.2565 8.235 48.1155 7.98 48.0135 7.686C47.9115 7.386 47.8605 7.05 47.8605 6.678C47.8605 6.312 47.9115 5.979 48.0135 5.679C48.1155 5.379 48.2565 5.124 48.4365 4.914C48.6225 4.698 48.8445 4.533 49.1025 4.419C49.3605 4.305 49.6455 4.248 49.9575 4.248C50.2695 4.248 50.5515 4.305 50.8035 4.419C51.0615 4.533 51.2835 4.698 51.4695 4.914C51.6555 5.124 51.7995 5.379 51.9015 5.679C52.0035 5.979 52.0545 6.312 52.0545 6.678C52.0545 7.05 52.0035 7.386 51.9015 7.686C51.7995 7.98 51.6555 8.235 51.4695 8.451C51.2835 8.661 51.0615 8.823 50.8035 8.937C50.5515 9.051 50.2695 9.108 49.9575 9.108ZM49.9575 8.469C50.3475 8.469 50.6655 8.349 50.9115 8.109C51.1575 7.869 51.2805 7.503 51.2805 7.011V6.345C51.2805 5.853 51.1575 5.487 50.9115 5.247C50.6655 5.007 50.3475 4.887 49.9575 4.887C49.5675 4.887 49.2495 5.007 49.0035 5.247C48.7575 5.487 48.6345 5.853 48.6345 6.345V7.011C48.6345 7.503 48.7575 7.869 49.0035 8.109C49.2495 8.349 49.5675 8.469 49.9575 8.469ZM54.6336 9.108C54.2016 9.108 53.8386 9.027 53.5446 8.865C53.2566 8.697 53.0076 8.475 52.7976 8.199L53.3106 7.785C53.4906 8.013 53.6916 8.19 53.9136 8.316C54.1356 8.436 54.3936 8.496 54.6876 8.496C54.9936 8.496 55.2306 8.43 55.3986 8.298C55.5726 8.166 55.6596 7.98 55.6596 7.74C55.6596 7.56 55.5996 7.407 55.4796 7.281C55.3656 7.149 55.1556 7.059 54.8496 7.011L54.4806 6.957C54.2646 6.927 54.0666 6.882 53.8866 6.822C53.7066 6.756 53.5476 6.672 53.4096 6.57C53.2776 6.462 53.1726 6.33 53.0946 6.174C53.0226 6.018 52.9866 5.832 52.9866 5.616C52.9866 5.388 53.0286 5.19 53.1126 5.022C53.1966 4.848 53.3106 4.704 53.4546 4.59C53.6046 4.476 53.7816 4.392 53.9856 4.338C54.1896 4.278 54.4086 4.248 54.6426 4.248C55.0206 4.248 55.3356 4.314 55.5876 4.446C55.8456 4.578 56.0706 4.761 56.2626 4.995L55.7856 5.427C55.6836 5.283 55.5336 5.154 55.3356 5.04C55.1376 4.92 54.8886 4.86 54.5886 4.86C54.2886 4.86 54.0606 4.926 53.9046 5.058C53.7546 5.184 53.6796 5.358 53.6796 5.58C53.6796 5.808 53.7546 5.973 53.9046 6.075C54.0606 6.177 54.2826 6.252 54.5706 6.3L54.9306 6.354C55.4466 6.432 55.8126 6.582 56.0286 6.804C56.2446 7.02 56.3526 7.305 56.3526 7.659C56.3526 8.109 56.1996 8.463 55.8936 8.721C55.5876 8.979 55.1676 9.108 54.6336 9.108ZM58.9666 9.108C58.5346 9.108 58.1716 9.027 57.8776 8.865C57.5896 8.697 57.3406 8.475 57.1306 8.199L57.6436 7.785C57.8236 8.013 58.0246 8.19 58.2466 8.316C58.4686 8.436 58.7266 8.496 59.0206 8.496C59.3266 8.496 59.5636 8.43 59.7316 8.298C59.9056 8.166 59.9926 7.98 59.9926 7.74C59.9926 7.56 59.9326 7.407 59.8126 7.281C59.6986 7.149 59.4886 7.059 59.1826 7.011L58.8136 6.957C58.5976 6.927 58.3996 6.882 58.2196 6.822C58.0396 6.756 57.8806 6.672 57.7426 6.57C57.6106 6.462 57.5056 6.33 57.4276 6.174C57.3556 6.018 57.3196 5.832 57.3196 5.616C57.3196 5.388 57.3616 5.19 57.4456 5.022C57.5296 4.848 57.6436 4.704 57.7876 4.59C57.9376 4.476 58.1146 4.392 58.3186 4.338C58.5226 4.278 58.7416 4.248 58.9756 4.248C59.3536 4.248 59.6686 4.314 59.9206 4.446C60.1786 4.578 60.4036 4.761 60.5956 4.995L60.1186 5.427C60.0166 5.283 59.8666 5.154 59.6686 5.04C59.4706 4.92 59.2216 4.86 58.9216 4.86C58.6216 4.86 58.3936 4.926 58.2376 5.058C58.0876 5.184 58.0126 5.358 58.0126 5.58C58.0126 5.808 58.0876 5.973 58.2376 6.075C58.3936 6.177 58.6156 6.252 58.9036 6.3L59.2636 6.354C59.7796 6.432 60.1456 6.582 60.3616 6.804C60.5776 7.02 60.6856 7.305 60.6856 7.659C60.6856 8.109 60.5326 8.463 60.2266 8.721C59.9206 8.979 59.5006 9.108 58.9666 9.108ZM65.3324 9C65.0624 9 64.8674 8.928 64.7474 8.784C64.6334 8.64 64.5614 8.46 64.5314 8.244H64.4864C64.3844 8.532 64.2164 8.748 63.9824 8.892C63.7484 9.036 63.4694 9.108 63.1454 9.108C62.6534 9.108 62.2694 8.982 61.9934 8.73C61.7234 8.478 61.5884 8.136 61.5884 7.704C61.5884 7.266 61.7474 6.93 62.0654 6.696C62.3894 6.462 62.8904 6.345 63.5684 6.345H64.4864V5.886C64.4864 5.556 64.3964 5.304 64.2164 5.13C64.0364 4.956 63.7604 4.869 63.3884 4.869C63.1064 4.869 62.8694 4.932 62.6774 5.058C62.4914 5.184 62.3354 5.352 62.2094 5.562L61.7774 5.157C61.9034 4.905 62.1044 4.692 62.3804 4.518C62.6564 4.338 63.0044 4.248 63.4244 4.248C63.9884 4.248 64.4264 4.386 64.7384 4.662C65.0504 4.938 65.2064 5.322 65.2064 5.814V8.37H65.7374V9H65.3324ZM63.2624 8.496C63.4424 8.496 63.6074 8.475 63.7574 8.433C63.9074 8.391 64.0364 8.331 64.1444 8.253C64.2524 8.175 64.3364 8.085 64.3964 7.983C64.4564 7.881 64.4864 7.77 64.4864 7.65V6.885H63.5324C63.1184 6.885 62.8154 6.945 62.6234 7.065C62.4374 7.185 62.3444 7.359 62.3444 7.587V7.776C62.3444 8.004 62.4254 8.181 62.5874 8.307C62.7554 8.433 62.9804 8.496 63.2624 8.496Z" fill="#222222"/>
<path d="M14.9092 10.125H65.9984V10.665H14.9092V10.125Z" fill="#222222"/>
<a href="https://github.com/georgehossa">
<rect fill="black" fill-opacity="0" x="0.90918" y="0.15" width="51.0892" height="11.7"/>
</a>
<defs>
<clipPath id="clip0_2_129">
<rect width="12" height="12" fill="white"/>
</clipPath>
</defs>
</svg>
