<svg width="58" height="12" viewBox="0 0 58 12" fill="none" xmlns="http://www.w3.org/2000/svg">
<path d="M9.93398 1.3125H2.06602C1.65 1.3125 1.3125 1.65 1.3125 2.06602V9.93398C1.3125 10.35 1.65 10.6875 2.06602 10.6875H9.93398C10.35 10.6875 10.6875 10.35 10.6875 9.93398V2.06602C10.6875 1.65 10.35 1.3125 9.93398 1.3125ZM9.93398 9.9375C4.68633 9.93633 2.0625 9.93516 2.0625 9.93398C2.06367 4.68633 2.06484 2.0625 2.06602 2.0625C7.31367 2.06367 9.9375 2.06484 9.9375 2.06602C9.93633 7.31367 9.93516 9.9375 9.93398 9.9375ZM2.70234 4.82695H4.09336V9.30117H2.70234V4.82695ZM3.39844 4.21523C3.84258 4.21523 4.20469 3.8543 4.20469 3.40898C4.20469 3.30311 4.18383 3.19826 4.14332 3.10045C4.1028 3.00263 4.04341 2.91375 3.96854 2.83888C3.89368 2.76401 3.80479 2.70462 3.70698 2.66411C3.60916 2.62359 3.50432 2.60273 3.39844 2.60273C3.29256 2.60273 3.18772 2.62359 3.0899 2.66411C2.99208 2.70462 2.9032 2.76401 2.82833 2.83888C2.75347 2.91375 2.69408 3.00263 2.65356 3.10045C2.61304 3.19826 2.59219 3.30311 2.59219 3.40898C2.59102 3.8543 2.95195 4.21523 3.39844 4.21523ZM6.35508 7.0875C6.35508 6.50391 6.46641 5.93906 7.18945 5.93906C7.90195 5.93906 7.9125 6.60586 7.9125 7.125V9.30117H9.30234V6.84727C9.30234 5.64258 9.04219 4.71562 7.63477 4.71562C6.95859 4.71562 6.50508 5.08711 6.31875 5.43867H6.3V4.82695H4.96523V9.30117H6.35508V7.0875Z" fill="#AF48FF"/>
<path d="M15.0658 4.356H15.7858V9.72C15.7858 10.044 15.7048 10.305 15.5428 10.503C15.3808 10.701 15.1258 10.8 14.7778 10.8H14.3098V10.17H15.0658V4.356ZM15.4258 3.267C15.2698 3.267 15.1558 3.231 15.0838 3.159C15.0178 3.081 14.9848 2.982 14.9848 2.862V2.745C14.9848 2.625 15.0178 2.529 15.0838 2.457C15.1558 2.379 15.2698 2.34 15.4258 2.34C15.5818 2.34 15.6928 2.379 15.7588 2.457C15.8308 2.529 15.8668 2.625 15.8668 2.745V2.862C15.8668 2.982 15.8308 3.081 15.7588 3.159C15.6928 3.231 15.5818 3.267 15.4258 3.267ZM19.0708 9.108C18.7588 9.108 18.4738 9.051 18.2158 8.937C17.9578 8.823 17.7358 8.661 17.5498 8.451C17.3698 8.235 17.2288 7.98 17.1268 7.686C17.0248 7.386 16.9738 7.05 16.9738 6.678C16.9738 6.312 17.0248 5.979 17.1268 5.679C17.2288 5.379 17.3698 5.124 17.5498 4.914C17.7358 4.698 17.9578 4.533 18.2158 4.419C18.4738 4.305 18.7588 4.248 19.0708 4.248C19.3828 4.248 19.6648 4.305 19.9168 4.419C20.1748 4.533 20.3968 4.698 20.5828 4.914C20.7688 5.124 20.9128 5.379 21.0148 5.679C21.1168 5.979 21.1678 6.312 21.1678 6.678C21.1678 7.05 21.1168 7.386 21.0148 7.686C20.9128 7.98 20.7688 8.235 20.5828 8.451C20.3968 8.661 20.1748 8.823 19.9168 8.937C19.6648 9.051 19.3828 9.108 19.0708 9.108ZM19.0708 8.469C19.4608 8.469 19.7788 8.349 20.0248 8.109C20.2708 7.869 20.3938 7.503 20.3938 7.011V6.345C20.3938 5.853 20.2708 5.487 20.0248 5.247C19.7788 5.007 19.4608 4.887 19.0708 4.887C18.6808 4.887 18.3628 5.007 18.1168 5.247C17.8708 5.487 17.7478 5.853 17.7478 6.345V7.011C17.7478 7.503 17.8708 7.869 18.1168 8.109C18.3628 8.349 18.6808 8.469 19.0708 8.469ZM22.3519 9V4.356H23.0719V5.211H23.1169C23.2009 4.989 23.3509 4.791 23.5669 4.617C23.7829 4.443 24.0799 4.356 24.4579 4.356H24.7369V5.076H24.3139C23.9239 5.076 23.6179 5.151 23.3959 5.301C23.1799 5.445 23.0719 5.628 23.0719 5.85V9H22.3519ZM29.3607 9.513C29.3607 9.993 29.1717 10.344 28.7937 10.566C28.4217 10.794 27.8607 10.908 27.1107 10.908C26.3847 10.908 25.8627 10.809 25.5447 10.611C25.2267 10.413 25.0677 10.131 25.0677 9.765C25.0677 9.513 25.1337 9.315 25.2657 9.171C25.3977 9.033 25.5777 8.931 25.8057 8.865V8.766C25.5297 8.634 25.3917 8.418 25.3917 8.118C25.3917 7.884 25.4667 7.707 25.6167 7.587C25.7667 7.461 25.9587 7.368 26.1927 7.308V7.272C25.9167 7.14 25.7007 6.951 25.5447 6.705C25.3947 6.459 25.3197 6.174 25.3197 5.85C25.3197 5.616 25.3617 5.4 25.4457 5.202C25.5297 5.004 25.6467 4.836 25.7967 4.698C25.9527 4.554 26.1357 4.443 26.3457 4.365C26.5617 4.287 26.8017 4.248 27.0657 4.248C27.3957 4.248 27.6897 4.308 27.9477 4.428V4.347C27.9477 4.167 27.9897 4.02 28.0737 3.906C28.1577 3.786 28.2957 3.726 28.4877 3.726H29.1807V4.356H28.2987V4.653C28.4667 4.797 28.5957 4.971 28.6857 5.175C28.7817 5.373 28.8297 5.598 28.8297 5.85C28.8297 6.084 28.7877 6.3 28.7037 6.498C28.6197 6.696 28.4997 6.867 28.3437 7.011C28.1937 7.149 28.0107 7.257 27.7947 7.335C27.5787 7.413 27.3387 7.452 27.0747 7.452C26.9247 7.452 26.7747 7.437 26.6247 7.407C26.4687 7.449 26.3277 7.512 26.2017 7.596C26.0757 7.674 26.0127 7.785 26.0127 7.929C26.0127 8.067 26.0787 8.16 26.2107 8.208C26.3427 8.256 26.5137 8.28 26.7237 8.28H27.7137C28.2897 8.28 28.7067 8.391 28.9647 8.613C29.2287 8.829 29.3607 9.129 29.3607 9.513ZM28.6857 9.567C28.6857 9.381 28.6137 9.231 28.4697 9.117C28.3317 9.009 28.0827 8.955 27.7227 8.955H26.1747C25.8867 9.087 25.7427 9.297 25.7427 9.585C25.7427 9.789 25.8177 9.963 25.9677 10.107C26.1237 10.251 26.3847 10.323 26.7507 10.323H27.4167C27.8187 10.323 28.1307 10.26 28.3527 10.134C28.5747 10.008 28.6857 9.819 28.6857 9.567ZM27.0747 6.876C27.3807 6.876 27.6237 6.804 27.8037 6.66C27.9837 6.51 28.0737 6.282 28.0737 5.976V5.724C28.0737 5.418 27.9837 5.193 27.8037 5.049C27.6237 4.899 27.3807 4.824 27.0747 4.824C26.7687 4.824 26.5257 4.899 26.3457 5.049C26.1657 5.193 26.0757 5.418 26.0757 5.724V5.976C26.0757 6.282 26.1657 6.51 26.3457 6.66C26.5257 6.804 26.7687 6.876 27.0747 6.876ZM31.8938 9.108C31.5758 9.108 31.2878 9.051 31.0298 8.937C30.7778 8.823 30.5588 8.661 30.3728 8.451C30.1928 8.235 30.0518 7.98 29.9498 7.686C29.8538 7.386 29.8058 7.05 29.8058 6.678C29.8058 6.312 29.8538 5.979 29.9498 5.679C30.0518 5.379 30.1928 5.124 30.3728 4.914C30.5588 4.698 30.7778 4.533 31.0298 4.419C31.2878 4.305 31.5758 4.248 31.8938 4.248C32.2058 4.248 32.4848 4.305 32.7308 4.419C32.9768 4.533 33.1868 4.692 33.3608 4.896C33.5348 5.094 33.6668 5.331 33.7568 5.607C33.8528 5.883 33.9008 6.186 33.9008 6.516V6.858H30.5618V7.074C30.5618 7.272 30.5918 7.458 30.6518 7.632C30.7178 7.8 30.8078 7.947 30.9218 8.073C31.0418 8.199 31.1858 8.298 31.3538 8.37C31.5278 8.442 31.7228 8.478 31.9388 8.478C32.2328 8.478 32.4878 8.409 32.7038 8.271C32.9258 8.133 33.0968 7.935 33.2168 7.677L33.7298 8.046C33.5798 8.364 33.3458 8.622 33.0278 8.82C32.7098 9.012 32.3318 9.108 31.8938 9.108ZM31.8938 4.851C31.6958 4.851 31.5158 4.887 31.3538 4.959C31.1918 5.025 31.0508 5.121 30.9308 5.247C30.8168 5.373 30.7268 5.523 30.6608 5.697C30.5948 5.865 30.5618 6.051 30.5618 6.255V6.318H33.1268V6.219C33.1268 5.805 33.0128 5.475 32.7848 5.229C32.5628 4.977 32.2658 4.851 31.8938 4.851ZM35.0873 2.34H35.8073V5.112H35.8433C35.9573 4.848 36.1163 4.638 36.3203 4.482C36.5303 4.326 36.8093 4.248 37.1573 4.248C37.6373 4.248 38.0153 4.404 38.2913 4.716C38.5733 5.022 38.7143 5.457 38.7143 6.021V9H37.9943V6.147C37.9943 5.313 37.6433 4.896 36.9413 4.896C36.7973 4.896 36.6563 4.914 36.5183 4.95C36.3863 4.986 36.2663 5.04 36.1583 5.112C36.0503 5.184 35.9633 5.277 35.8973 5.391C35.8373 5.499 35.8073 5.628 35.8073 5.778V9H35.0873V2.34ZM41.9575 9.108C41.6455 9.108 41.3605 9.051 41.1025 8.937C40.8445 8.823 40.6225 8.661 40.4365 8.451C40.2565 8.235 40.1155 7.98 40.0135 7.686C39.9115 7.386 39.8605 7.05 39.8605 6.678C39.8605 6.312 39.9115 5.979 40.0135 5.679C40.1155 5.379 40.2565 5.124 40.4365 4.914C40.6225 4.698 40.8445 4.533 41.1025 4.419C41.3605 4.305 41.6455 4.248 41.9575 4.248C42.2695 4.248 42.5515 4.305 42.8035 4.419C43.0615 4.533 43.2835 4.698 43.4695 4.914C43.6555 5.124 43.7995 5.379 43.9015 5.679C44.0035 5.979 44.0545 6.312 44.0545 6.678C44.0545 7.05 44.0035 7.386 43.9015 7.686C43.7995 7.98 43.6555 8.235 43.4695 8.451C43.2835 8.661 43.0615 8.823 42.8035 8.937C42.5515 9.051 42.2695 9.108 41.9575 9.108ZM41.9575 8.469C42.3475 8.469 42.6655 8.349 42.9115 8.109C43.1575 7.869 43.2805 7.503 43.2805 7.011V6.345C43.2805 5.853 43.1575 5.487 42.9115 5.247C42.6655 5.007 42.3475 4.887 41.9575 4.887C41.5675 4.887 41.2495 5.007 41.0035 5.247C40.7575 5.487 40.6345 5.853 40.6345 6.345V7.011C40.6345 7.503 40.7575 7.869 41.0035 8.109C41.2495 8.349 41.5675 8.469 41.9575 8.469ZM46.6336 9.108C46.2016 9.108 45.8386 9.027 45.5446 8.865C45.2566 8.697 45.0076 8.475 44.7976 8.199L45.3106 7.785C45.4906 8.013 45.6916 8.19 45.9136 8.316C46.1356 8.436 46.3936 8.496 46.6876 8.496C46.9936 8.496 47.2306 8.43 47.3986 8.298C47.5726 8.166 47.6596 7.98 47.6596 7.74C47.6596 7.56 47.5996 7.407 47.4796 7.281C47.3656 7.149 47.1556 7.059 46.8496 7.011L46.4806 6.957C46.2646 6.927 46.0666 6.882 45.8866 6.822C45.7066 6.756 45.5476 6.672 45.4096 6.57C45.2776 6.462 45.1726 6.33 45.0946 6.174C45.0226 6.018 44.9866 5.832 44.9866 5.616C44.9866 5.388 45.0286 5.19 45.1126 5.022C45.1966 4.848 45.3106 4.704 45.4546 4.59C45.6046 4.476 45.7816 4.392 45.9856 4.338C46.1896 4.278 46.4086 4.248 46.6426 4.248C47.0206 4.248 47.3356 4.314 47.5876 4.446C47.8456 4.578 48.0706 4.761 48.2626 4.995L47.7856 5.427C47.6836 5.283 47.5336 5.154 47.3356 5.04C47.1376 4.92 46.8886 4.86 46.5886 4.86C46.2886 4.86 46.0606 4.926 45.9046 5.058C45.7546 5.184 45.6796 5.358 45.6796 5.58C45.6796 5.808 45.7546 5.973 45.9046 6.075C46.0606 6.177 46.2826 6.252 46.5706 6.3L46.9306 6.354C47.4466 6.432 47.8126 6.582 48.0286 6.804C48.2446 7.02 48.3526 7.305 48.3526 7.659C48.3526 8.109 48.1996 8.463 47.8936 8.721C47.5876 8.979 47.1676 9.108 46.6336 9.108ZM50.9666 9.108C50.5346 9.108 50.1716 9.027 49.8776 8.865C49.5896 8.697 49.3406 8.475 49.1306 8.199L49.6436 7.785C49.8236 8.013 50.0246 8.19 50.2466 8.316C50.4686 8.436 50.7266 8.496 51.0206 8.496C51.3266 8.496 51.5636 8.43 51.7316 8.298C51.9056 8.166 51.9926 7.98 51.9926 7.74C51.9926 7.56 51.9326 7.407 51.8126 7.281C51.6986 7.149 51.4886 7.059 51.1826 7.011L50.8136 6.957C50.5976 6.927 50.3996 6.882 50.2196 6.822C50.0396 6.756 49.8806 6.672 49.7426 6.57C49.6106 6.462 49.5056 6.33 49.4276 6.174C49.3556 6.018 49.3196 5.832 49.3196 5.616C49.3196 5.388 49.3616 5.19 49.4456 5.022C49.5296 4.848 49.6436 4.704 49.7876 4.59C49.9376 4.476 50.1146 4.392 50.3186 4.338C50.5226 4.278 50.7416 4.248 50.9756 4.248C51.3536 4.248 51.6686 4.314 51.9206 4.446C52.1786 4.578 52.4036 4.761 52.5956 4.995L52.1186 5.427C52.0166 5.283 51.8666 5.154 51.6686 5.04C51.4706 4.92 51.2216 4.86 50.9216 4.86C50.6216 4.86 50.3936 4.926 50.2376 5.058C50.0876 5.184 50.0126 5.358 50.0126 5.58C50.0126 5.808 50.0876 5.973 50.2376 6.075C50.3936 6.177 50.6156 6.252 50.9036 6.3L51.2636 6.354C51.7796 6.432 52.1456 6.582 52.3616 6.804C52.5776 7.02 52.6856 7.305 52.6856 7.659C52.6856 8.109 52.5326 8.463 52.2266 8.721C51.9206 8.979 51.5006 9.108 50.9666 9.108ZM57.3324 9C57.0624 9 56.8674 8.928 56.7474 8.784C56.6334 8.64 56.5614 8.46 56.5314 8.244H56.4864C56.3844 8.532 56.2164 8.748 55.9824 8.892C55.7484 9.036 55.4694 9.108 55.1454 9.108C54.6534 9.108 54.2694 8.982 53.9934 8.73C53.7234 8.478 53.5884 8.136 53.5884 7.704C53.5884 7.266 53.7474 6.93 54.0654 6.696C54.3894 6.462 54.8904 6.345 55.5684 6.345H56.4864V5.886C56.4864 5.556 56.3964 5.304 56.2164 5.13C56.0364 4.956 55.7604 4.869 55.3884 4.869C55.1064 4.869 54.8694 4.932 54.6774 5.058C54.4914 5.184 54.3354 5.352 54.2094 5.562L53.7774 5.157C53.9034 4.905 54.1044 4.692 54.3804 4.518C54.6564 4.338 55.0044 4.248 55.4244 4.248C55.9884 4.248 56.4264 4.386 56.7384 4.662C57.0504 4.938 57.2064 5.322 57.2064 5.814V8.37H57.7374V9H57.3324ZM55.2624 8.496C55.4424 8.496 55.6074 8.475 55.7574 8.433C55.9074 8.391 56.0364 8.331 56.1444 8.253C56.2524 8.175 56.3364 8.085 56.3964 7.983C56.4564 7.881 56.4864 7.77 56.4864 7.65V6.885H55.5324C55.1184 6.885 54.8154 6.945 54.6234 7.065C54.4374 7.185 54.3444 7.359 54.3444 7.587V7.776C54.3444 8.004 54.4254 8.181 54.5874 8.307C54.7554 8.433 54.9804 8.496 55.2624 8.496Z" fill="#222222"/>
<path d="M14.3008 10.125H57.9984V10.665H14.3008V10.125Z" fill="#222222"/>
<a href="https://www.linkedin.com/in/jorgehossa/">
<rect fill="black" fill-opacity="0" x="0.300781" y="0.15" width="43.6976" height="11.7"/>
</a>
</svg>
