<svg width="65" height="10" viewBox="0 0 65 10" fill="none" xmlns="http://www.w3.org/2000/svg">
<path fill-rule="evenodd" clip-rule="evenodd" d="M0.125 5C0.125 2.31172 2.31172 0.125 5 0.125C7.68828 0.125 9.875 2.31172 9.875 5C9.875 7.68828 7.68828 9.875 5 9.875C2.31172 9.875 0.125 7.68828 0.125 5ZM9.16367 4.96719C9.15547 3.98398 8.80391 3.08164 8.22383 2.37266C8.13594 2.49219 7.4375 3.38633 5.89883 4.01562C5.99609 4.21367 6.08867 4.41641 6.17539 4.61914C6.20586 4.69063 6.23516 4.76211 6.26445 4.83359C7.64961 4.65898 9.02656 4.93789 9.16367 4.96719ZM7.75977 1.89102C7.025 1.23945 6.0582 0.842187 5 0.842187C4.6707 0.842187 4.34375 0.880859 4.02383 0.958203C4.13984 1.11289 4.8957 2.1418 5.57773 3.3957C7.05781 2.84023 7.68477 1.99766 7.75977 1.89102ZM4.77266 3.64648C4.08359 2.4207 3.33945 1.38828 3.2293 1.23828C2.06445 1.78789 1.19375 2.86133 0.923047 4.15391C1.10938 4.15625 2.825 4.16328 4.77266 3.64648ZM0.838672 4.87813C0.8375 4.92031 0.836328 4.96367 0.836328 5.00586C0.836328 6.07578 1.2418 7.05195 1.90625 7.79023C2.00117 7.62969 3.14375 5.73711 5.2918 5.04102C5.3457 5.02344 5.40078 5.00703 5.45586 4.9918C5.35156 4.75508 5.23789 4.51836 5.11836 4.28516C3.03828 4.90742 1.02031 4.88164 0.838672 4.87813ZM2.44414 8.29062C3.14961 8.84141 4.03672 9.16953 5 9.16953C5.55863 9.17107 6.11171 9.05862 6.62539 8.83906C6.56328 8.47344 6.32188 7.19961 5.73711 5.68086L5.71016 5.69023C3.36172 6.50938 2.51914 8.13711 2.44414 8.29062ZM6.51758 5.48984C7.0625 6.98633 7.28398 8.20508 7.32617 8.4582C8.26133 7.82656 8.92578 6.82578 9.11094 5.66797C8.96914 5.62344 7.82305 5.28125 6.51758 5.48984ZM18.4534 9.125C18.5439 8.95189 18.5892 8.74789 18.5892 8.513C18.5892 8.129 18.4572 7.829 18.1932 7.613C17.9352 7.391 17.5182 7.28 16.9422 7.28H15.9522C15.7422 7.28 15.5712 7.256 15.4392 7.208C15.3072 7.16 15.2412 7.067 15.2412 6.929C15.2412 6.785 15.3042 6.674 15.4302 6.596C15.5562 6.512 15.6972 6.449 15.8532 6.407C16.0032 6.437 16.1532 6.452 16.3032 6.452C16.5672 6.452 16.8072 6.413 17.0232 6.335C17.2392 6.257 17.4222 6.149 17.5722 6.011C17.7282 5.867 17.8482 5.696 17.9322 5.498C18.0162 5.3 18.0582 5.084 18.0582 4.85C18.0582 4.598 18.0102 4.373 17.9142 4.175C17.8242 3.971 17.6952 3.797 17.5272 3.653V3.356H18.4092V2.726H17.7162C17.5242 2.726 17.3862 2.786 17.3022 2.906C17.2182 3.02 17.1762 3.167 17.1762 3.347V3.428C16.9182 3.308 16.6242 3.248 16.2942 3.248C16.0302 3.248 15.7902 3.287 15.5742 3.365C15.3642 3.443 15.1812 3.554 15.0252 3.698C14.8752 3.836 14.7582 4.004 14.6742 4.202C14.5902 4.4 14.5482 4.616 14.5482 4.85C14.5482 5.174 14.6232 5.459 14.7732 5.705C14.9292 5.951 15.1452 6.14 15.4212 6.272V6.308C15.1872 6.368 14.9952 6.461 14.8452 6.587C14.6952 6.707 14.6202 6.884 14.6202 7.118C14.6202 7.418 14.7582 7.634 15.0342 7.766V7.865C14.8062 7.931 14.6262 8.033 14.4942 8.171C14.3622 8.315 14.2962 8.513 14.2962 8.765C14.2962 8.89571 14.3165 9.01571 14.357 9.125H13.9092V9.665H14.8698C15.1927 9.827 15.6825 9.908 16.3392 9.908C16.9714 9.908 17.4693 9.827 17.8329 9.665H32.6413C32.9642 9.827 33.454 9.908 34.1107 9.908C34.7429 9.908 35.2408 9.827 35.6044 9.665H64.9984V9.125H36.2249C36.3154 8.95189 36.3607 8.74789 36.3607 8.513C36.3607 8.129 36.2287 7.829 35.9647 7.613C35.7067 7.391 35.2897 7.28 34.7137 7.28H33.7237C33.5137 7.28 33.3427 7.256 33.2107 7.208C33.0787 7.16 33.0127 7.067 33.0127 6.929C33.0127 6.785 33.0757 6.674 33.2017 6.596C33.3277 6.512 33.4687 6.449 33.6247 6.407C33.7747 6.437 33.9247 6.452 34.0747 6.452C34.3387 6.452 34.5787 6.413 34.7947 6.335C35.0107 6.257 35.1937 6.149 35.3437 6.011C35.4997 5.867 35.6197 5.696 35.7037 5.498C35.7877 5.3 35.8297 5.084 35.8297 4.85C35.8297 4.598 35.7817 4.373 35.6857 4.175C35.5957 3.971 35.4667 3.797 35.2987 3.653V3.356H36.1807V2.726H35.4877C35.2957 2.726 35.1577 2.786 35.0737 2.906C34.9897 3.02 34.9477 3.167 34.9477 3.347V3.428C34.6897 3.308 34.3957 3.248 34.0657 3.248C33.8017 3.248 33.5617 3.287 33.3457 3.365C33.1357 3.443 32.9527 3.554 32.7967 3.698C32.6467 3.836 32.5297 4.004 32.4457 4.202C32.3617 4.4 32.3197 4.616 32.3197 4.85C32.3197 5.174 32.3947 5.459 32.5447 5.705C32.7007 5.951 32.9167 6.14 33.1927 6.272V6.308C32.9587 6.368 32.7667 6.461 32.6167 6.587C32.4667 6.707 32.3917 6.884 32.3917 7.118C32.3917 7.418 32.5297 7.634 32.8057 7.766V7.865C32.5777 7.931 32.3977 8.033 32.2657 8.171C32.1337 8.315 32.0677 8.513 32.0677 8.765C32.0677 8.89571 32.0879 9.01571 32.1285 9.125H18.4534ZM17.5967 9.125C17.8083 8.99907 17.9142 8.81307 17.9142 8.567C17.9142 8.381 17.8422 8.231 17.6982 8.117C17.5602 8.009 17.3112 7.955 16.9512 7.955H15.4032C15.1152 8.087 14.9712 8.297 14.9712 8.585C14.9712 8.789 15.0462 8.963 15.1962 9.107C15.2028 9.11313 15.2097 9.11913 15.2167 9.125H17.5967ZM35.3682 9.125H32.9882C32.9811 9.11913 32.9743 9.11313 32.9677 9.107C32.8177 8.963 32.7427 8.789 32.7427 8.585C32.7427 8.297 32.8867 8.087 33.1747 7.955H34.7227C35.0827 7.955 35.3317 8.009 35.4697 8.117C35.6137 8.231 35.6857 8.381 35.6857 8.567C35.6857 8.81307 35.5798 8.99907 35.3682 9.125ZM17.0322 5.66C16.8522 5.804 16.6092 5.876 16.3032 5.876C15.9972 5.876 15.7542 5.804 15.5742 5.66C15.3942 5.51 15.3042 5.282 15.3042 4.976V4.724C15.3042 4.418 15.3942 4.193 15.5742 4.049C15.7542 3.899 15.9972 3.824 16.3032 3.824C16.6092 3.824 16.8522 3.899 17.0322 4.049C17.2122 4.193 17.3022 4.418 17.3022 4.724V4.976C17.3022 5.282 17.2122 5.51 17.0322 5.66ZM20.2583 7.937C20.5163 8.051 20.8043 8.108 21.1223 8.108C21.5603 8.108 21.9383 8.012 22.2563 7.82C22.5743 7.622 22.8083 7.364 22.9583 7.046L22.4453 6.677C22.3253 6.935 22.1543 7.133 21.9323 7.271C21.7163 7.409 21.4613 7.478 21.1673 7.478C20.9513 7.478 20.7563 7.442 20.5823 7.37C20.4143 7.298 20.2703 7.199 20.1503 7.073C20.0363 6.947 19.9463 6.8 19.8803 6.632C19.8203 6.458 19.7903 6.272 19.7903 6.074V5.858H23.1293V5.516C23.1293 5.186 23.0813 4.883 22.9853 4.607C22.8953 4.331 22.7633 4.094 22.5893 3.896C22.4153 3.692 22.2053 3.533 21.9593 3.419C21.7133 3.305 21.4343 3.248 21.1223 3.248C20.8043 3.248 20.5163 3.305 20.2583 3.419C20.0063 3.533 19.7873 3.698 19.6013 3.914C19.4213 4.124 19.2803 4.379 19.1783 4.679C19.0823 4.979 19.0343 5.312 19.0343 5.678C19.0343 6.05 19.0823 6.386 19.1783 6.686C19.2803 6.98 19.4213 7.235 19.6013 7.451C19.7873 7.661 20.0063 7.823 20.2583 7.937ZM20.5823 3.959C20.7443 3.887 20.9243 3.851 21.1223 3.851C21.4943 3.851 21.7913 3.977 22.0133 4.229C22.2413 4.475 22.3553 4.805 22.3553 5.219V5.318H19.7903V5.255C19.7903 5.051 19.8233 4.865 19.8893 4.697C19.9553 4.523 20.0453 4.373 20.1593 4.247C20.2793 4.121 20.4203 4.025 20.5823 3.959ZM25.2158 7.937C25.4738 8.051 25.7588 8.108 26.0708 8.108C26.3828 8.108 26.6648 8.051 26.9168 7.937C27.1748 7.823 27.3968 7.661 27.5828 7.451C27.7688 7.235 27.9128 6.98 28.0148 6.686C28.1168 6.386 28.1678 6.05 28.1678 5.678C28.1678 5.312 28.1168 4.979 28.0148 4.679C27.9128 4.379 27.7688 4.124 27.5828 3.914C27.3968 3.698 27.1748 3.533 26.9168 3.419C26.6648 3.305 26.3828 3.248 26.0708 3.248C25.7588 3.248 25.4738 3.305 25.2158 3.419C24.9578 3.533 24.7358 3.698 24.5498 3.914C24.3698 4.124 24.2288 4.379 24.1268 4.679C24.0248 4.979 23.9738 5.312 23.9738 5.678C23.9738 6.05 24.0248 6.386 24.1268 6.686C24.2288 6.98 24.3698 7.235 24.5498 7.451C24.7358 7.661 24.9578 7.823 25.2158 7.937ZM27.0248 7.109C26.7788 7.349 26.4608 7.469 26.0708 7.469C25.6808 7.469 25.3628 7.349 25.1168 7.109C24.8708 6.869 24.7478 6.503 24.7478 6.011V5.345C24.7478 4.853 24.8708 4.487 25.1168 4.247C25.3628 4.007 25.6808 3.887 26.0708 3.887C26.4608 3.887 26.7788 4.007 27.0248 4.247C27.2708 4.487 27.3938 4.853 27.3938 5.345V6.011C27.3938 6.503 27.2708 6.869 27.0248 7.109ZM30.0719 3.356H29.3519V8H30.0719V4.85C30.0719 4.628 30.1799 4.445 30.3959 4.301C30.6179 4.151 30.9239 4.076 31.3139 4.076H31.7369V3.356H31.4579C31.0799 3.356 30.7829 3.443 30.5669 3.617C30.3509 3.791 30.2009 3.989 30.1169 4.211H30.0719V3.356ZM34.8037 5.66C34.6237 5.804 34.3807 5.876 34.0747 5.876C33.7687 5.876 33.5257 5.804 33.3457 5.66C33.1657 5.51 33.0757 5.282 33.0757 4.976V4.724C33.0757 4.418 33.1657 4.193 33.3457 4.049C33.5257 3.899 33.7687 3.824 34.0747 3.824C34.3807 3.824 34.6237 3.899 34.8037 4.049C34.9837 4.193 35.0737 4.418 35.0737 4.724V4.976C35.0737 5.282 34.9837 5.51 34.8037 5.66ZM38.0298 7.937C38.2878 8.051 38.5758 8.108 38.8938 8.108C39.3318 8.108 39.7098 8.012 40.0278 7.82C40.3458 7.622 40.5798 7.364 40.7298 7.046L40.2168 6.677C40.0968 6.935 39.9258 7.133 39.7038 7.271C39.4878 7.409 39.2328 7.478 38.9388 7.478C38.7228 7.478 38.5278 7.442 38.3538 7.37C38.1858 7.298 38.0418 7.199 37.9218 7.073C37.8078 6.947 37.7178 6.8 37.6518 6.632C37.5918 6.458 37.5618 6.272 37.5618 6.074V5.858H40.9008V5.516C40.9008 5.186 40.8528 4.883 40.7568 4.607C40.6668 4.331 40.5348 4.094 40.3608 3.896C40.1868 3.692 39.9768 3.533 39.7308 3.419C39.4848 3.305 39.2058 3.248 38.8938 3.248C38.5758 3.248 38.2878 3.305 38.0298 3.419C37.7778 3.533 37.5588 3.698 37.3728 3.914C37.1928 4.124 37.0518 4.379 36.9498 4.679C36.8538 4.979 36.8058 5.312 36.8058 5.678C36.8058 6.05 36.8538 6.386 36.9498 6.686C37.0518 6.98 37.1928 7.235 37.3728 7.451C37.5588 7.661 37.7778 7.823 38.0298 7.937ZM38.3538 3.959C38.5158 3.887 38.6958 3.851 38.8938 3.851C39.2658 3.851 39.5628 3.977 39.7848 4.229C40.0128 4.475 40.1268 4.805 40.1268 5.219V5.318H37.5618V5.255C37.5618 5.051 37.5948 4.865 37.6608 4.697C37.7268 4.523 37.8168 4.373 37.9308 4.247C38.0508 4.121 38.1918 4.025 38.3538 3.959ZM42.8073 1.34H42.0873V8H42.8073V4.778C42.8073 4.628 42.8373 4.499 42.8973 4.391C42.9633 4.277 43.0503 4.184 43.1583 4.112C43.2663 4.04 43.3863 3.986 43.5183 3.95C43.6563 3.914 43.7973 3.896 43.9413 3.896C44.6433 3.896 44.9943 4.313 44.9943 5.147V8H45.7143V5.021C45.7143 4.457 45.5733 4.022 45.2913 3.716C45.0153 3.404 44.6373 3.248 44.1573 3.248C43.8093 3.248 43.5303 3.326 43.3203 3.482C43.1163 3.638 42.9573 3.848 42.8433 4.112H42.8073V1.34ZM48.1025 7.937C48.3605 8.051 48.6455 8.108 48.9575 8.108C49.2695 8.108 49.5515 8.051 49.8035 7.937C50.0615 7.823 50.2835 7.661 50.4695 7.451C50.6555 7.235 50.7995 6.98 50.9015 6.686C51.0035 6.386 51.0545 6.05 51.0545 5.678C51.0545 5.312 51.0035 4.979 50.9015 4.679C50.7995 4.379 50.6555 4.124 50.4695 3.914C50.2835 3.698 50.0615 3.533 49.8035 3.419C49.5515 3.305 49.2695 3.248 48.9575 3.248C48.6455 3.248 48.3605 3.305 48.1025 3.419C47.8445 3.533 47.6225 3.698 47.4365 3.914C47.2565 4.124 47.1155 4.379 47.0135 4.679C46.9115 4.979 46.8605 5.312 46.8605 5.678C46.8605 6.05 46.9115 6.386 47.0135 6.686C47.1155 6.98 47.2565 7.235 47.4365 7.451C47.6225 7.661 47.8445 7.823 48.1025 7.937ZM49.9115 7.109C49.6655 7.349 49.3475 7.469 48.9575 7.469C48.5675 7.469 48.2495 7.349 48.0035 7.109C47.7575 6.869 47.6345 6.503 47.6345 6.011V5.345C47.6345 4.853 47.7575 4.487 48.0035 4.247C48.2495 4.007 48.5675 3.887 48.9575 3.887C49.3475 3.887 49.6655 4.007 49.9115 4.247C50.1575 4.487 50.2805 4.853 50.2805 5.345V6.011C50.2805 6.503 50.1575 6.869 49.9115 7.109ZM52.5446 7.865C52.8386 8.027 53.2016 8.108 53.6336 8.108C54.1676 8.108 54.5876 7.979 54.8936 7.721C55.1996 7.463 55.3526 7.109 55.3526 6.659C55.3526 6.305 55.2446 6.02 55.0286 5.804C54.8126 5.582 54.4466 5.432 53.9306 5.354L53.5706 5.3C53.2826 5.252 53.0606 5.177 52.9046 5.075C52.7546 4.973 52.6796 4.808 52.6796 4.58C52.6796 4.358 52.7546 4.184 52.9046 4.058C53.0606 3.926 53.2886 3.86 53.5886 3.86C53.8886 3.86 54.1376 3.92 54.3356 4.04C54.5336 4.154 54.6836 4.283 54.7856 4.427L55.2626 3.995C55.0706 3.761 54.8456 3.578 54.5876 3.446C54.3356 3.314 54.0206 3.248 53.6426 3.248C53.4086 3.248 53.1896 3.278 52.9856 3.338C52.7816 3.392 52.6046 3.476 52.4546 3.59C52.3106 3.704 52.1966 3.848 52.1126 4.022C52.0286 4.19 51.9866 4.388 51.9866 4.616C51.9866 4.832 52.0226 5.018 52.0946 5.174C52.1726 5.33 52.2776 5.462 52.4096 5.57C52.5476 5.672 52.7066 5.756 52.8866 5.822C53.0666 5.882 53.2646 5.927 53.4806 5.957L53.8496 6.011C54.1556 6.059 54.3656 6.149 54.4796 6.281C54.5996 6.407 54.6596 6.56 54.6596 6.74C54.6596 6.98 54.5726 7.166 54.3986 7.298C54.2306 7.43 53.9936 7.496 53.6876 7.496C53.3936 7.496 53.1356 7.436 52.9136 7.316C52.6916 7.19 52.4906 7.013 52.3106 6.785L51.7976 7.199C52.0076 7.475 52.2566 7.697 52.5446 7.865ZM56.8776 7.865C57.1716 8.027 57.5346 8.108 57.9666 8.108C58.5006 8.108 58.9206 7.979 59.2266 7.721C59.5326 7.463 59.6856 7.109 59.6856 6.659C59.6856 6.305 59.5776 6.02 59.3616 5.804C59.1456 5.582 58.7796 5.432 58.2636 5.354L57.9036 5.3C57.6156 5.252 57.3936 5.177 57.2376 5.075C57.0876 4.973 57.0126 4.808 57.0126 4.58C57.0126 4.358 57.0876 4.184 57.2376 4.058C57.3936 3.926 57.6216 3.86 57.9216 3.86C58.2216 3.86 58.4706 3.92 58.6686 4.04C58.8666 4.154 59.0166 4.283 59.1186 4.427L59.5956 3.995C59.4036 3.761 59.1786 3.578 58.9206 3.446C58.6686 3.314 58.3536 3.248 57.9756 3.248C57.7416 3.248 57.5226 3.278 57.3186 3.338C57.1146 3.392 56.9376 3.476 56.7876 3.59C56.6436 3.704 56.5296 3.848 56.4456 4.022C56.3616 4.19 56.3196 4.388 56.3196 4.616C56.3196 4.832 56.3556 5.018 56.4276 5.174C56.5056 5.33 56.6106 5.462 56.7426 5.57C56.8806 5.672 57.0396 5.756 57.2196 5.822C57.3996 5.882 57.5976 5.927 57.8136 5.957L58.1826 6.011C58.4886 6.059 58.6986 6.149 58.8126 6.281C58.9326 6.407 58.9926 6.56 58.9926 6.74C58.9926 6.98 58.9056 7.166 58.7316 7.298C58.5636 7.43 58.3266 7.496 58.0206 7.496C57.7266 7.496 57.4686 7.436 57.2466 7.316C57.0246 7.19 56.8236 7.013 56.6436 6.785L56.1306 7.199C56.3406 7.475 56.5896 7.697 56.8776 7.865ZM63.7474 7.784C63.8674 7.928 64.0624 8 64.3324 8H64.7374V7.37H64.2064V4.814C64.2064 4.322 64.0504 3.938 63.7384 3.662C63.4264 3.386 62.9884 3.248 62.4244 3.248C62.0044 3.248 61.6564 3.338 61.3804 3.518C61.1044 3.692 60.9034 3.905 60.7774 4.157L61.2094 4.562C61.3354 4.352 61.4914 4.184 61.6774 4.058C61.8694 3.932 62.1064 3.869 62.3884 3.869C62.7604 3.869 63.0364 3.956 63.2164 4.13C63.3964 4.304 63.4864 4.556 63.4864 4.886V5.345H62.5684C61.8904 5.345 61.3894 5.462 61.0654 5.696C60.7474 5.93 60.5884 6.266 60.5884 6.704C60.5884 7.136 60.7234 7.478 60.9934 7.73C61.2694 7.982 61.6534 8.108 62.1454 8.108C62.4694 8.108 62.7484 8.036 62.9824 7.892C63.2164 7.748 63.3844 7.532 63.4864 7.244H63.5314C63.5614 7.46 63.6334 7.64 63.7474 7.784ZM62.7574 7.433C62.6074 7.475 62.4424 7.496 62.2624 7.496C61.9804 7.496 61.7554 7.433 61.5874 7.307C61.4254 7.181 61.3444 7.004 61.3444 6.776V6.587C61.3444 6.359 61.4374 6.185 61.6234 6.065C61.8154 5.945 62.1184 5.885 62.5324 5.885H63.4864V6.65C63.4864 6.77 63.4564 6.881 63.3964 6.983C63.3364 7.085 63.2524 7.175 63.1444 7.253C63.0364 7.331 62.9074 7.391 62.7574 7.433Z" fill="#222222"/>
</svg>
